<svg role="img" viewBox="0 0 24 24" xmlns="http://www.w3.org/2000/svg" id="Shopee--Streamline-Simple-Icons" height="24" width="24">
  <desc>
    Shopee Streamline Icon: https://streamlinehq.com
  </desc>
  <title>Shopee</title>
  <path d="M15.9414 17.9633c0.229 -1.879 -0.981 -3.077 -4.1758 -4.0969 -1.548 -0.528 -2.277 -1.22 -2.26 -2.1719 0.065 -1.056 1.048 -1.825 2.352 -1.85a5.2898 5.2898 0 0 1 2.8838 0.89c0.116 0.072 0.197 0.06 0.263 -0.039 0.09 -0.145 0.315 -0.494 0.39 -0.62 0.051 -0.081 0.061 -0.187 -0.068 -0.281 -0.185 -0.1369 -0.704 -0.4149 -0.983 -0.5319a6.4697 6.4697 0 0 0 -2.5118 -0.514c-1.909 0.008 -3.4129 1.215 -3.5389 2.826 -0.082 1.1629 0.494 2.1078 1.73 2.8278 0.262 0.152 1.6799 0.716 2.2438 0.892 1.774 0.552 2.695 1.5419 2.478 2.6969 -0.197 1.047 -1.299 1.7239 -2.818 1.7439 -1.2039 -0.046 -2.2878 -0.537 -3.1278 -1.19l-0.141 -0.11c-0.104 -0.08 -0.218 -0.075 -0.287 0.03 -0.05 0.077 -0.376 0.547 -0.458 0.67 -0.077 0.108 -0.035 0.168 0.045 0.234 0.35 0.293 0.817 0.613 1.134 0.775a6.7097 6.7097 0 0 0 2.8289 0.727 4.9048 4.9048 0 0 0 2.0759 -0.354c1.095 -0.465 1.8029 -1.394 1.9449 -2.554zM11.9986 1.4009c-2.068 0 -3.7539 1.95 -3.8329 4.3899h7.6657c-0.08 -2.44 -1.765 -4.3899 -3.8328 -4.3899zm7.8516 22.5981 -0.08 0.001 -15.7843 -0.002c-1.074 -0.04 -1.863 -0.91 -1.971 -1.991l-0.01 -0.195L1.298 6.2858a0.459 0.459 0 0 1 0.45 -0.494h4.9748C6.8448 2.568 9.1607 0 11.9996 0c2.8388 0 5.1537 2.5689 5.2757 5.7898h4.9678a0.459 0.459 0 0 1 0.458 0.483l-0.773 15.5883 -0.007 0.131c-0.094 1.094 -0.979 1.9769 -2.0709 2.0059z" fill="#ee4d2d" stroke-width="1"></path>
</svg>
